<svg xmlns="http://www.w3.org/2000/svg" viewBox="0 0 920.64 1342.66" fill="none">
  <path fill="#C339FE" d="M327 163.28c0-.64.05-1.27.05-1.91 0-4.89-.25-9.71-.68-14.48v-.06q-.49-5.57-1.34-11c-.2-1.3-.46-2.57-.69-3.85-.31-1.7-.64-3.39-1-5.07A153.86 153.86 0 0 0 303.17 77q-2-3.27-4.16-6.43l-.53-.75a161.33 161.33 0 0 0-230-37.23C41.27 51.58 21 77.86 9 112.72A283.19 283.19 0 0 0 5.21 144.1a161.52 161.52 0 0 0-.93 17.27c0 1.06.06 2.12.08 3.18-.06 2.91-.15 5.82-.15 8.73Q3.6 412.46 4 651.65c0 5.68-1.12 11.61.7 17 3.82 11.26 10.06 11.49 17.39 2.67C63.35 592.21 123.85 528.46 186 465.92c41.34-41.63 83.47-82.41 127-121.75 9.07-8.2 14.31-15.51 14.25-29.83C327 264.36 327.53 213.22 327 163.28Z"/>
  <path fill="#8E43FE" d="M670.57 487.3c.44-4 4.19-8.41 10.36-14.35 64.29-62 128.4-124.17 191.5-187.36a160.08 160.08 0 0 0 36.35-45.41c33.87-57.82 28.36-121.85-12.8-170.82A159.72 159.72 0 0 0 655.9 51c-18.33 15.74-35.06 33.25-52.08 50.3C453.81 251.48 301.68 399.61 154 552.2A452.52 452.52 0 0 0 23.32 747.5Q16 767.41 10.07 788.12a100.2 100.2 0 0 0-2.45 19.6 442 442 0 0 0-6.13 45.9l0 .08V854Q0 871.81 0 890t1.46 36.09v10.72c.45.7.82 1.42 1.23 2.13C18 1078.66 97.83 1199.31 212.36 1271.44q70 45.49 154.93 62l.51.1 5 .94a470.9 470.9 0 0 0 87.55 8.21c1.37 0 2.73 0 4.1-.05 3.47 0 6.93 0 10.42 0 201.64-2.5 380.67-142.34 430.63-337A446.25 446.25 0 0 0 920.64 890c0-175.45-101.58-327.6-250.07-402.7ZM446.18 1047.6c-88.9 1.33-164.95-72.89-165.55-161.5a163.19 163.19 0 0 1 26.65-89.33c29.18-43.47 79.65-71.74 138.07-71.7 71.72.06 132.06 44.73 154.16 107.57a163.78 163.78 0 0 1 9 53.11c0 87.12-73.51 160.52-162.33 161.85Z"/>
</svg>
